<mxfile host="app.diagrams.net" modified="2023-09-24T14:26:38.730Z" agent="Mozilla/5.0 (Windows NT 10.0; Win64; x64) AppleWebKit/537.36 (KHTML, like Gecko) Chrome/116.0.0.0 Safari/537.36" etag="KALq4KtaQyBVeFv3NVHC" version="21.6.8" type="device">
  <diagram id="C5RBs43oDa-KdzZeNtuy" name="Page-1">
    <mxGraphModel dx="2901" dy="1118" grid="1" gridSize="10" guides="1" tooltips="1" connect="1" arrows="1" fold="1" page="1" pageScale="1" pageWidth="827" pageHeight="1169" math="0" shadow="0">
      <root>
        <mxCell id="WIyWlLk6GJQsqaUBKTNV-0" />
        <mxCell id="WIyWlLk6GJQsqaUBKTNV-1" parent="WIyWlLk6GJQsqaUBKTNV-0" />
        <mxCell id="81oof1cDrThz0_nmWjFC-7" style="edgeStyle=orthogonalEdgeStyle;rounded=0;orthogonalLoop=1;jettySize=auto;html=1;exitX=0.5;exitY=1;exitDx=0;exitDy=0;" edge="1" parent="WIyWlLk6GJQsqaUBKTNV-1" source="81oof1cDrThz0_nmWjFC-1" target="81oof1cDrThz0_nmWjFC-3">
          <mxGeometry relative="1" as="geometry" />
        </mxCell>
        <mxCell id="81oof1cDrThz0_nmWjFC-1" value="!USBSerial.available()" style="rhombus;whiteSpace=wrap;html=1;" vertex="1" parent="WIyWlLk6GJQsqaUBKTNV-1">
          <mxGeometry x="320" y="150" width="170" height="80" as="geometry" />
        </mxCell>
        <mxCell id="81oof1cDrThz0_nmWjFC-5" value="M5Telemetry" style="swimlane;whiteSpace=wrap;html=1;" vertex="1" parent="WIyWlLk6GJQsqaUBKTNV-1">
          <mxGeometry x="-80" y="40" width="345" height="560" as="geometry" />
        </mxCell>
        <mxCell id="81oof1cDrThz0_nmWjFC-11" style="edgeStyle=orthogonalEdgeStyle;rounded=0;orthogonalLoop=1;jettySize=auto;html=1;exitX=0.5;exitY=1;exitDx=0;exitDy=0;entryX=0.5;entryY=0;entryDx=0;entryDy=0;" edge="1" parent="81oof1cDrThz0_nmWjFC-5" source="81oof1cDrThz0_nmWjFC-8" target="81oof1cDrThz0_nmWjFC-10">
          <mxGeometry relative="1" as="geometry" />
        </mxCell>
        <mxCell id="81oof1cDrThz0_nmWjFC-8" value="commandLookupTable[(uint8_t)commandValue]();" style="rounded=1;whiteSpace=wrap;html=1;" vertex="1" parent="81oof1cDrThz0_nmWjFC-5">
          <mxGeometry x="18.75" y="300" width="307.5" height="20" as="geometry" />
        </mxCell>
        <mxCell id="81oof1cDrThz0_nmWjFC-0" value="commandHandler.rxSerial()" style="rounded=1;whiteSpace=wrap;html=1;" vertex="1" parent="81oof1cDrThz0_nmWjFC-5">
          <mxGeometry x="80" y="40" width="160" height="20" as="geometry" />
        </mxCell>
        <mxCell id="81oof1cDrThz0_nmWjFC-14" style="edgeStyle=orthogonalEdgeStyle;rounded=0;orthogonalLoop=1;jettySize=auto;html=1;exitX=0.5;exitY=1;exitDx=0;exitDy=0;entryX=0;entryY=0.25;entryDx=0;entryDy=0;" edge="1" parent="81oof1cDrThz0_nmWjFC-5" source="81oof1cDrThz0_nmWjFC-10" target="81oof1cDrThz0_nmWjFC-0">
          <mxGeometry relative="1" as="geometry">
            <Array as="points">
              <mxPoint x="160" y="410" />
              <mxPoint x="160" y="430" />
              <mxPoint x="10" y="430" />
              <mxPoint x="10" y="45" />
            </Array>
          </mxGeometry>
        </mxCell>
        <mxCell id="81oof1cDrThz0_nmWjFC-10" value="commandHandler.txSerial()" style="rounded=1;whiteSpace=wrap;html=1;" vertex="1" parent="81oof1cDrThz0_nmWjFC-5">
          <mxGeometry x="92.5" y="390" width="160" height="20" as="geometry" />
        </mxCell>
        <mxCell id="81oof1cDrThz0_nmWjFC-2" style="edgeStyle=orthogonalEdgeStyle;rounded=0;orthogonalLoop=1;jettySize=auto;html=1;exitX=0.5;exitY=1;exitDx=0;exitDy=0;entryX=0.5;entryY=0;entryDx=0;entryDy=0;" edge="1" parent="81oof1cDrThz0_nmWjFC-5" source="81oof1cDrThz0_nmWjFC-0">
          <mxGeometry relative="1" as="geometry">
            <mxPoint x="160" y="80" as="sourcePoint" />
            <mxPoint x="485" y="130" as="targetPoint" />
          </mxGeometry>
        </mxCell>
        <mxCell id="81oof1cDrThz0_nmWjFC-6" value="CommandHandler" style="swimlane;whiteSpace=wrap;html=1;" vertex="1" parent="WIyWlLk6GJQsqaUBKTNV-1">
          <mxGeometry x="265" y="40" width="285" height="560" as="geometry" />
        </mxCell>
        <mxCell id="81oof1cDrThz0_nmWjFC-3" value="commandHandler.rxNumOfBytes" style="rounded=1;whiteSpace=wrap;html=1;" vertex="1" parent="81oof1cDrThz0_nmWjFC-6">
          <mxGeometry x="42.5" y="240" width="195" height="20" as="geometry" />
        </mxCell>
        <mxCell id="81oof1cDrThz0_nmWjFC-9" style="edgeStyle=orthogonalEdgeStyle;rounded=0;orthogonalLoop=1;jettySize=auto;html=1;" edge="1" parent="WIyWlLk6GJQsqaUBKTNV-1" source="81oof1cDrThz0_nmWjFC-3" target="81oof1cDrThz0_nmWjFC-8">
          <mxGeometry relative="1" as="geometry" />
        </mxCell>
      </root>
    </mxGraphModel>
  </diagram>
</mxfile>
